<svg
  xmlns="http://www.w3.org/2000/svg"
  viewBox="0 0 900 600"
  width="24"
  height="22"
>
  <!-- Green Stripe -->
  <rect width="900" height="200" fill="#007A3D" />
  <!-- White Stripe -->
  <rect y="200" width="900" height="200" fill="#FFFFFF" />
  <!-- Black Stripe -->
  <rect y="400" width="900" height="200" fill="#000000" />
  <!-- Red Stars -->
  <g transform="translate(450, 300)">
    <!-- Much Larger Stars (scaled by 2.5x) -->
    <path
      d="M -250 -125 L -212.5 -50 L -125 -50 L -200 25 L -162.5 125 L -250 62.5 L -337.5 125 L -300 25 L -375 -50 L -287.5 -50 Z"
      fill="#CE1126"
    />
    <path
      d="M 0 -125 L 37.5 -50 L 125 -50 L 50 25 L 87.5 125 L 0 62.5 L -87.5 125 L -50 25 L -125 -50 L -37.5 -50 Z"
      fill="#CE1126"
    />
    <path
      d="M 250 -125 L 287.5 -50 L 375 -50 L 300 25 L 337.5 125 L 250 62.5 L 162.5 125 L 200 25 L 125 -50 L 212.5 -50 Z"
      fill="#CE1126"
    />
  </g>
</svg>